<svg width="160" height="22" xmlns="http://www.w3.org/2000/svg"><g fill="none" fill-rule="evenodd"><path d="M.242.28h4.363v6.55c1.286-1.458 2.88-1.802 4.082-1.802 2.993 0 6.404 2.06 6.32 7.552 0 6.036-2.936 8.467-6.683 8.467-1.706 0-3.104-.944-3.831-1.888h-.056v1.488H.242V.28zm7.383 17.506c2.237 0 3.02-2.145 3.02-4.748-.084-2.918-.7-4.748-3.02-4.748-2.265 0-3.048 2.145-3.048 4.748s.783 4.748 3.048 4.748zM20.348 13.953c.028 2.918 1.846 3.833 3.244 3.833 1.622 0 2.377-.858 3.636-2.689l3.271 1.745c-1.51 2.86-3.887 4.205-7.215 4.205-4.614 0-7.298-3.26-7.298-7.552 0-5.377 2.768-8.467 7.298-8.467 5.426 0 7.271 4.234 7.3 8.925H20.347zm5.873-2.746c-.14-2.231-1.706-2.917-2.965-2.917-1.258 0-2.768.915-2.964 2.917h5.929z" fill="#E25D21"></path><path fill="#000" d="M29.465.28h15.38v3.947h-5.201v16.42h-4.978V4.227h-5.201V.28"></path><path d="M43.698 5.43h4.362v1.544c.951-.916 2.545-1.488 4.083-1.602l.028 3.947-.475.057c-2.6.315-3.636.773-3.636 2.46v8.81h-4.362V5.43M65.762 17.471c0 1.059.028 2.232.391 3.176h-4.027a6.209 6.209 0 0 1-.28-1.574h-.055c-.728 1.202-2.909 1.974-4.475 1.974-2.852 0-4.978-1.602-4.978-4.52 0-3.66 2.88-4.948 7.635-5.635l1.594-.228V9.405c0-1.144-.895-1.63-2.07-1.63-1.398 0-2.069.515-2.293 2.03H53.01c.14-4.376 4.11-4.777 6.124-4.777 4.055 0 6.6.973 6.628 4.406v8.037zm-4.195-4.233l-2.936.858c-1.091.315-2.098.744-2.098 1.974 0 1.201.979 1.716 2.041 1.716 1.707 0 2.993-1.173 2.993-3.49v-1.058zM66.46 5.43h4.67l2.573 10.754h.056L76.332 5.43h4.642l-5.09 15.218h-4.39L66.46 5.429M84.86 13.953c.028 2.918 1.846 3.833 3.244 3.833 1.622 0 2.377-.858 3.636-2.689l3.272 1.745c-1.51 2.86-3.887 4.205-7.215 4.205-4.614 0-7.3-3.26-7.3-7.552 0-5.377 2.77-8.467 7.3-8.467 5.425 0 7.27 4.234 7.299 8.925H84.86zm5.873-2.746c-.14-2.231-1.706-2.917-2.964-2.917-1.259 0-2.769.915-2.965 2.917h5.93zM96.773.28h4.362v20.367h-4.362zM102.225 5.43h4.53l1.986 10.754h.056l2.181-10.755h4.726l1.958 10.755h.056l2.32-10.755h4.56l-4.95 15.218h-4.28l-2.125-9.926h-.056l-2.209 9.926h-4.306l-4.447-15.218M125.128.28h4.362v3.432h-4.362V.28zm0 5.15h4.362v15.217h-4.362V5.429zM141.682 9.92c-.867-1.058-2.74-1.63-4.11-1.63-1.091 0-1.874.4-1.874 1.172 0 2.603 8.809.458 8.809 6.15 0 4.005-3.468 5.435-6.712 5.435-3.244 0-5.09-.944-7.27-3.003l2.712-2.403c1.342 1.316 2.712 2.145 4.698 2.145.727 0 2.377-.172 2.377-1.544 0-2.375-8.809-.487-8.809-5.893 0-3.833 3.272-5.32 6.292-5.32 2.293 0 4.558.829 6.572 2.202l-2.685 2.689M149.512 13.953c.028 2.918 1.846 3.833 3.244 3.833 1.622 0 2.377-.858 3.636-2.689l3.271 1.745c-1.51 2.86-3.887 4.205-7.215 4.205-4.614 0-7.298-3.26-7.298-7.552 0-5.377 2.768-8.467 7.298-8.467 5.426 0 7.271 4.234 7.3 8.925h-10.236zm5.873-2.746c-.14-2.231-1.706-2.917-2.965-2.917-1.258 0-2.768.915-2.964 2.917h5.929z" fill="#000"></path></g></svg>